[Header]
FileType HTR
DataType HTRS
FileVersion 1
NumSegments 48
NumFrames 3
DataFrameRate 30
EulerRotationOrder ZYX
CalibrationUnits mm
RotationUnits Degrees
GlobalAxisofGravity Y
BoneLengthAxis Y
ScaleFactor 1.0
[SegmentNames&Hierarchy]
Wolf	GLOBAL
Becken	Wolf
Bauch	Becken
Bauch_001	Bauch
Brust	Bauch_001
Hals	Brust
Kopf_002	Hals
Kopf	Kopf_002
Unterkiefer	Kopf
Hals_fett	Unterkiefer
Maulunten	Unterkiefer
Mauloben	Kopf
MundW_L	Kopf
MundW_R	Kopf
Augen_con	Kopf
IK_Aug_R	Augen_con
IK_Aug_L	Augen_con
Aug_R	Kopf
aug_L	Kopf
Ohr_L	Kopf
Ohr_R	Kopf
Braun_O_L	Kopf
Braun_O_R	Kopf
aug_lied_O_L	Kopf
aug_lied_O_R	Kopf
aug_lied_U_L	Kopf
aug_lied_U_R	Kopf
Bauch_003	Brust
Schalterplatte_L	Bauch_003
Oberarm_L	Schalterplatte_L
Unterarm_L	Oberarm_L
Vorderpfote_L	Unterarm_L
Schalterplatte_R	Bauch_003
Oberarm_R	Schalterplatte_R
Unterarm_R	Oberarm_R
Vorderpfote_R	Unterarm_R
Schwanz	Becken
Schwanz_001	Schwanz
Schwanz_002	Schwanz_001
Schwanz_003	Schwanz_002
Oberschenkel_L	Becken
Unterschenkel_L	Oberschenkel_L
Pfote1_L	Unterschenkel_L
Pfote2_L	Pfote1_L
Oberschenkel_R	Becken
Unterschenkel_R	Oberschenkel_R
Pfote1_R	Unterschenkel_R
Pfote2_R	Pfote1_R
[BasePosition]
Wolf	0	0	0	0	0	0	1
Becken	0	0	0	0	0	0	1
Bauch	0	0	0	0	0	0	1
Bauch_001	0	0	0	0	0	0	1
Brust	0	0	0	0	0	0	1
Hals	0	0	0	0	0	0	1
Kopf_002	0	0	0	0	0	0	1
Kopf	0	0	0	0	0	0	1
Unterkiefer	0	0	0	0	0	0	1
Hals_fett	0	0	0	0	0	0	1
Maulunten	0	0	0	0	0	0	1
Mauloben	0	0	0	0	0	0	1
MundW_L	0	0	0	0	0	0	1
MundW_R	0	0	0	0	0	0	1
Augen_con	0	0	0	0	0	0	1
IK_Aug_R	0	0	0	0	0	0	1
IK_Aug_L	0	0	0	0	0	0	1
Aug_R	0	0	0	0	0	0	1
aug_L	0	0	0	0	0	0	1
Ohr_L	0	0	0	0	0	0	1
Ohr_R	0	0	0	0	0	0	1
Braun_O_L	0	0	0	0	0	0	1
Braun_O_R	0	0	0	0	0	0	1
aug_lied_O_L	0	0	0	0	0	0	1
aug_lied_O_R	0	0	0	0	0	0	1
aug_lied_U_L	0	0	0	0	0	0	1
aug_lied_U_R	0	0	0	0	0	0	1
Bauch_003	0	0	0	0	0	0	1
Schalterplatte_L	0	0	0	0	0	0	1
Oberarm_L	0	0	0	0	0	0	1
Unterarm_L	0	0	0	0	0	0	1
Vorderpfote_L	0	0	0	0	0	0	1
Schalterplatte_R	0	0	0	0	0	0	1
Oberarm_R	0	0	0	0	0	0	1
Unterarm_R	0	0	0	0	0	0	1
Vorderpfote_R	0	0	0	0	0	0	1
Schwanz	0	0	0	0	0	0	1
Schwanz_001	0	0	0	0	0	0	1
Schwanz_002	0	0	0	0	0	0	1
Schwanz_003	0	0	0	0	0	0	1
Oberschenkel_L	0	0	0	0	0	0	1
Unterschenkel_L	0	0	0	0	0	0	1
Pfote1_L	0	0	0	0	0	0	1
Pfote2_L	0	0	0	0	0	0	1
Oberschenkel_R	0	0	0	0	0	0	1
Unterschenkel_R	0	0	0	0	0	0	1
Pfote1_R	0	0	0	0	0	0	1
Pfote2_R	0	0	0	0	0	0	1
[Wolf]
7	0	0	0	-90	-0	0	1.0
8	0	0	0	-90	-0	0	1.0
9	0	0	0	-90	-0	0	1.0
[Becken]
7	0	0.5621799231	0.4780441225	-1.488857508	169.3842621	89.4647522	1.0
8	0	0.5621799231	0.4939081669	-1.307251692	169.3827515	89.5300293	1.0
9	0	0.5621799231	0.5088441372	-1.10432291	169.3812561	89.60297394	1.0
[Bauch]
7	0.9404072165	7.335228958e-08	-0.3559131622	-9.70548399e-07	12.60522652	-8.885302805e-08	1.0
8	0.9404072165	7.335228958e-08	-0.3559131622	-9.70548399e-07	12.60522652	-8.885302805e-08	1.0
9	0.9404072165	7.335228958e-08	-0.3559131622	-9.70548399e-07	12.60522652	-8.885302805e-08	1.0
[Bauch_001]
7	1.081897616	8.323696221e-08	1.180524034e-08	-2.503413032e-09	2.360082865	-2.670307531e-08	1.0
8	1.081897616	8.323696221e-08	1.180524034e-08	-2.503413032e-09	2.360082865	-2.670307531e-08	1.0
9	1.081897616	8.323696221e-08	1.180524034e-08	-2.503413032e-09	2.360082865	-2.670307531e-08	1.0
[Brust]
7	1.069831252	8.440110832e-08	3.139576066e-08	5.110827715e-06	13.10200882	-3.549572648e-05	1.0
8	1.069831252	8.440110832e-08	3.139576066e-08	5.110827715e-06	13.74505138	-3.549572648e-05	1.0
9	1.069831252	8.440110832e-08	3.139576066e-08	5.110827715e-06	14.35036564	-3.549572648e-05	1.0
[Hals]
7	1.258022308	9.662471712e-08	0.6079561114	-4.810633527e-06	46.87745667	-2.341890877e-06	1.0
8	1.258022308	9.662471712e-08	0.6079561114	-4.810633527e-06	46.87745667	-2.341890877e-06	1.0
9	1.258022308	9.662471712e-08	0.6079561114	-4.810633527e-06	46.87745667	-2.341890877e-06	1.0
[Kopf_002]
7	1.752595186	3.012712114e-05	0.265181601	0.006653386634	-165.1497192	0.002557684667	1.0
8	1.752595186	3.012712114e-05	0.265181601	0.006653386634	-165.1497192	0.002557684667	1.0
9	1.752595186	3.012712114e-05	0.265181601	0.006653386634	-165.1497192	0.002557684667	1.0
[Kopf]
7	1.015782118	6.868503988e-08	-5.515175872e-08	0.06425690651	118.5496216	-0.02988732979	1.0
8	1.015782118	6.868503988e-08	-5.515175872e-08	0.06279289722	117.2630005	-0.03118908592	1.0
9	1.015782118	6.868503988e-08	-5.515175872e-08	0.06129506975	116.0520172	-0.03252761438	1.0
[Unterkiefer]
7	0.6370447874	0.004552732222	0.4060618579	5.412721634	-68.3888092	-3.093543291	1.0
8	0.6370447874	0.004552732222	0.4060618579	5.412721634	-68.3888092	-3.093543291	1.0
9	0.6370447874	0.004552732222	0.4060618579	5.412721634	-68.3888092	-3.093543291	1.0
[Hals_fett]
7	0.2998305857	0.007747137919	0.1206372604	-5.071650982	-59.35961151	5.585564613	1.0
8	0.2998305857	0.007747137919	0.1206372604	-5.071650982	-59.35961151	5.585564613	1.0
9	0.2998305857	0.007747137919	0.1206372604	-5.071650982	-59.35961151	5.585564613	1.0
[Maulunten]
7	0.0831861794	-0.007747565862	-0.1206544712	-3.322209358	38.97271347	-0.8718761206	1.0
8	0.0831861794	-0.007747565862	-0.1206544712	-3.322209358	38.97271347	-0.8718761206	1.0
9	0.0831861794	-0.007747565862	-0.1206544712	-3.322209358	38.97271347	-0.8718761206	1.0
[Mauloben]
7	0.9101490974	0.0004056713078	0.4003697634	-0.1032672822	-28.7776947	0.03543138877	1.0
8	0.9101490974	0.0004056713078	0.4003697634	-0.1032672822	-28.7776947	0.03543138877	1.0
9	0.9101490974	0.0004056713078	0.4003697634	-0.1032672822	-28.7776947	0.03543138877	1.0
[MundW_L]
7	0.673060894	-0.3618555963	0.3751283586	-179.8370972	-17.94885063	24.713974	1.0
8	0.673060894	-0.3618555963	0.3751283586	-179.8370972	-17.94885063	24.713974	1.0
9	0.673060894	-0.3618555963	0.3751283586	-179.8370972	-17.94885063	24.713974	1.0
[MundW_R]
7	0.6732419133	0.3627035022	0.3739836514	179.665329	-18.02427101	-24.69083595	1.0
8	0.6732419133	0.3627035022	0.3739836514	179.665329	-18.02427101	-24.69083595	1.0
9	0.6732419133	0.3627035022	0.3739836514	179.665329	-18.02427101	-24.69083595	1.0
[Augen_con]
7	1.807373166	-0.0001604110003	0.183581531	0.0982221961	157.1545258	0.02385941334	1.0
8	1.807373166	-0.0001604110003	0.183581531	0.0982221961	157.1545258	0.02385941334	1.0
9	1.807373166	-0.0001604110003	0.183581531	0.0982221961	157.1545258	0.02385941334	1.0
[IK_Aug_R]
7	0.3461295962	0.2943200469	-1.071020961e-07	-0.4194760025	-4.963055134	165.6946411	1.0
8	0.3461295962	0.2943200469	-1.071020961e-07	-0.4194760025	-4.963055134	165.6946411	1.0
9	0.3461295962	0.2943200469	-1.071020961e-07	-0.4194760025	-4.963055134	165.6946411	1.0
[IK_Aug_L]
7	0.3461301029	-0.2943200171	-1.967418939e-07	0.4194771945	-4.963055134	-165.6946411	1.0
8	0.3461301029	-0.2943200171	-1.967418939e-07	0.4194771945	-4.963055134	-165.6946411	1.0
9	0.3461301029	-0.2943200171	-1.967418939e-07	0.4194771945	-4.963055134	-165.6946411	1.0
[Aug_R]
7	1.035154939	0.2207805216	-0.09605780989	176.004776	-17.29167175	12.85548782	1.0
8	1.035154939	0.2207805216	-0.09605780989	176.004776	-17.29167175	12.85548782	1.0
9	1.035154939	0.2207805216	-0.09605780989	176.004776	-17.29167175	12.85548782	1.0
[aug_L]
7	1.03504467	-0.2215988934	-0.09535907209	-176.1891022	-17.33180046	-12.83102131	1.0
8	1.03504467	-0.2215988934	-0.09535907209	-176.1891022	-17.33180046	-12.83102131	1.0
9	1.03504467	-0.2215988934	-0.09535907209	-176.1891022	-17.33180046	-12.83102131	1.0
[Ohr_L]
7	0.6407766938	-0.3659991026	-0.6893324852	-24.34923935	53.07765961	-15.02013397	1.0
8	0.6407766938	-0.3659991026	-0.6893324852	-24.34923935	53.07765961	-15.02013397	1.0
9	0.6407766938	-0.3659991026	-0.6893324852	-24.34923935	53.07765961	-15.02013397	1.0
[Ohr_R]
7	0.640958488	0.36349985	-0.690484941	24.05785561	53.12415695	14.75856686	1.0
8	0.640958488	0.36349985	-0.690484941	24.05785561	53.12415695	14.75856686	1.0
9	0.640958488	0.36349985	-0.690484941	24.05785561	53.12415695	14.75856686	1.0
[Braun_O_L]
7	0.9801894426	-0.3706049323	-0.3292509615	-143.317215	-34.69636154	52.39493942	1.0
8	0.9801894426	-0.3706049323	-0.3292509615	-143.317215	-34.69636154	52.39493942	1.0
9	0.9801894426	-0.3706049323	-0.3292509615	-143.317215	-34.69636154	52.39493942	1.0
[Braun_O_R]
7	0.9803640842	0.3690741956	-0.3304226995	143.1826782	-34.83971405	-52.34676361	1.0
8	0.9803640842	0.3690741956	-0.3304226995	143.1826782	-34.83971405	-52.34676361	1.0
9	0.9803640842	0.3690741956	-0.3304226995	143.1826782	-34.83971405	-52.34676361	1.0
[aug_lied_O_L]
7	1.038882375	-0.3271433413	-0.1608109176	-175.8613434	-20.15596771	60.31667709	1.0
8	1.038882375	-0.3271433413	-0.1608109176	-175.8613434	-20.15596771	60.31667709	1.0
9	1.038882375	-0.3271433413	-0.1608109176	-175.8613434	-20.15596771	60.31667709	1.0
[aug_lied_O_R]
7	1.039044976	0.326115787	-0.1618431658	175.7657928	-20.31324005	-60.31218338	1.0
8	1.039044976	0.326115787	-0.1618431658	175.7657928	-20.31324005	-60.31218338	1.0
9	1.039044976	0.326115787	-0.1618431658	175.7657928	-20.31324005	-60.31218338	1.0
[aug_lied_U_L]
7	1.02191329	-0.3312865198	-0.1338392347	-159.8099365	-28.7482872	60.17462158	1.0
8	1.02191329	-0.3312865198	-0.1338392347	-159.8099365	-28.7482872	60.17462158	1.0
9	1.02191329	-0.3312865198	-0.1338392347	-159.8099365	-28.7482872	60.17462158	1.0
[aug_lied_U_R]
7	1.022078872	0.3303525448	-0.1348842829	159.7071381	-28.90532303	-60.15359116	1.0
8	1.022078872	0.3303525448	-0.1348842829	159.7071381	-28.90532303	-60.15359116	1.0
9	1.022078872	0.3303525448	-0.1348842829	159.7071381	-28.90532303	-60.15359116	1.0
[Bauch_003]
7	1.276869178	9.429641068e-08	-0.6079563498	-3.842957085e-06	-137.6799469	1.008550771e-05	1.0
8	1.276869178	9.429641068e-08	-0.6079563498	-3.842957085e-06	-137.6799469	1.008550771e-05	1.0
9	1.276869178	9.429641068e-08	-0.6079563498	-3.842957085e-06	-137.6799469	1.008550771e-05	1.0
[Schalterplatte_L]
7	0.9443673491	-0.3814979196	-0.0729817301	-24.29912949	75.93473816	-51.94030762	1.0
8	0.9340705872	-0.3819026053	-0.06123360991	-18.36767578	74.69921875	-45.92313385	1.0
9	0.9243333936	-0.382307291	-0.04917949811	-13.23164082	73.33348083	-40.68610382	1.0
[Oberarm_L]
7	1.418636799	1.443549991e-07	9.778887033e-08	-46.05060577	-54.86228943	53.93956757	1.0
8	1.418636799	1.443549991e-07	9.778887033e-08	-46.48312759	-55.15490723	54.46598053	1.0
9	1.418636799	1.443549991e-07	9.778887033e-08	-46.850811	-55.39230728	54.90073776	1.0
[Unterarm_L]
7	2.028227329	8.847563748e-08	-3.725290298e-07	0.4446350932	46.03149414	0.283026427	1.0
8	2.028227329	8.847563748e-08	-3.725290298e-07	0.4336070418	44.74770355	0.2591064572	1.0
9	2.028227329	8.847563748e-08	-3.725290298e-07	0.4129261971	43.38317871	0.2306289077	1.0
[Vorderpfote_L]
7	1.705947638	1.746229827e-07	-5.704351125e-08	-2.174737453	67.40455627	-1.038506985	1.0
8	1.705947638	1.746229827e-07	-5.704351125e-08	-2.560960293	70.73603058	-1.466585994	1.0
9	1.705947638	1.746229827e-07	-5.704351125e-08	-3.054494143	73.75367737	-1.997861862	1.0
[Schalterplatte_R]
7	1.011286616	0.395853281	0.1145175993	16.34762573	75.1049881	47.14337921	1.0
8	0.9802389145	0.3930484951	0.09334183484	24.9450016	77.21361542	56.41207886	1.0
9	0.9514436722	0.3902436793	0.07216607034	37.5670433	79.0150528	69.54840088	1.0
[Oberarm_R]
7	1.418636322	-1.210719205e-07	-7.450580597e-08	92.67549133	-60.71753693	-110.7396774	1.0
8	1.418636322	-1.210719205e-07	-7.450580597e-08	98.15811157	-59.99773407	-117.2570953	1.0
9	1.418636322	-1.210719205e-07	-7.450580597e-08	102.4138794	-59.1299057	-122.3330307	1.0
[Unterarm_R]
7	2.028231859	1.676380634e-07	-3.608874977e-07	-5.739873886	58.93553162	-6.57870388	1.0
8	2.028231859	1.676380634e-07	-3.608874977e-07	-6.509658337	60.61206436	-7.553071022	1.0
9	2.028231859	1.676380634e-07	-3.608874977e-07	-7.006642818	61.65555191	-8.209004402	1.0
[Vorderpfote_R]
7	1.705937624	7.799826562e-08	1.461012289e-07	-2.844972372	48.09918594	1.450005293	1.0
8	1.705937624	7.799826562e-08	1.461012289e-07	-3.741919756	33.79974365	2.361210585	1.0
9	1.705937624	7.799826562e-08	1.461012289e-07	-4.712538242	19.5083847	3.414160728	1.0
[Schwanz]
7	-0.1327172518	-1.382431947e-08	0.08362904936	-2.220226997e-05	-115.949501	2.181978562e-05	1.0
8	-0.1224462837	-1.382431947e-08	0.07787307352	-2.220226997e-05	-117.1779175	2.181978562e-05	1.0
9	-0.1121753156	-1.382431947e-08	0.07211709023	-2.220226997e-05	-118.334137	2.181978562e-05	1.0
[Schwanz_001]
7	0.9104328156	6.868503988e-08	7.788912626e-08	-2.408194405e-06	10.44552135	-5.75290926e-07	1.0
8	0.9104328156	6.868503988e-08	7.788912626e-08	-2.408194405e-06	12.1208992	-5.75290926e-07	1.0
9	0.9104328156	6.868503988e-08	7.788912626e-08	-2.408194405e-06	13.69758797	-5.75290926e-07	1.0
[Schwanz_002]
7	0.7855660319	5.704351125e-08	-1.185253495e-07	8.174235973e-07	-7.304346561	-1.362372615e-07	1.0
8	0.7855660319	5.704351125e-08	-1.185253495e-07	8.174235973e-07	-6.093003273	-1.362372615e-07	1.0
9	0.7855660319	5.704351125e-08	-1.185253495e-07	8.174235973e-07	-4.952859402	-1.362372615e-07	1.0
[Schwanz_003]
7	0.8350355029	6.286426668e-08	-2.072192729e-07	-2.187832479e-06	-2.664861202	1.867661581e-07	1.0
8	0.8350355029	6.286426668e-08	-2.072192729e-07	-2.187832479e-06	-3.305459738	1.867661581e-07	1.0
9	0.8350355029	6.286426668e-08	-2.072192729e-07	-2.187832479e-06	-3.908472538	1.867661581e-07	1.0
[Oberschenkel_L]
7	0.5749288797	-0.5836999416	0.009352458641	-150.9239807	-102.5884857	155.5734711	1.0
8	0.6054261327	-0.5836999416	-0.02155504934	-154.7813873	-104.8829575	159.5441742	1.0
9	0.6341383457	-0.5836999416	-0.05065247789	-158.2649078	-107.953949	163.1766968	1.0
[Unterschenkel_L]
7	1.686439037	6.984918599e-08	-6.053597446e-08	-21.60891533	-59.09166718	27.8825779	1.0
8	1.686439037	6.984918599e-08	-6.053597446e-08	-24.09602737	-61.39640427	30.75448608	1.0
9	1.686439037	6.984918599e-08	-6.053597446e-08	-27.90942764	-64.1496582	35.01966095	1.0
[Pfote1_L]
7	1.190900326	6.519258022e-08	1.396983862e-07	2.465082884	27.87292862	-5.507623196	1.0
8	1.190900326	6.519258022e-08	1.396983862e-07	2.406738997	29.24132347	-5.629225254	1.0
9	1.190900326	6.519258022e-08	1.396983862e-07	2.340436935	30.69231796	-5.761688709	1.0
[Pfote2_L]
7	0.9876257777	7.450580597e-08	-5.587935092e-08	-36.25273132	84.45124054	-41.1272316	1.0
8	0.9876257777	7.450580597e-08	-5.587935092e-08	-46.99403	85.22932434	-52.06454086	1.0
9	0.9876257777	7.450580597e-08	-5.587935092e-08	-59.99752426	85.66786194	-65.29093933	1.0
[Oberschenkel_R]
7	0.6679977179	0.5837000012	0.09188596904	-15.16861439	-60.95898438	9.721013069	1.0
8	0.6460189819	0.5837000012	0.09572872519	-15.86905098	-62.84222412	10.51315022	1.0
9	0.6236677766	0.5837000012	0.09957148135	-16.7430439	-64.86811829	11.48530483	1.0
[Unterschenkel_R]
7	1.68644917	1.164153218e-07	2.793967901e-08	16.98848152	-43.58545303	-26.87360382	1.0
8	1.68644917	1.164153218e-07	2.793967901e-08	16.23555756	-42.4743576	-25.9315033	1.0
9	1.68644917	1.164153218e-07	2.793967901e-08	15.46114159	-41.25424957	-24.93285751	1.0
[Pfote1_R]
7	1.190900087	1.856824383e-07	4.190951941e-08	-2.31917429	35.42389297	5.814896584	1.0
8	1.190900087	1.856824383e-07	4.190951941e-08	-2.307615519	35.1829834	5.834916115	1.0
9	1.190900087	1.856824383e-07	4.190951941e-08	-2.293473721	34.88441467	5.859567642	1.0
[Pfote2_R]
7	0.9876258373	6.984919754e-09	6.635672634e-08	13.8436861	83.18867493	20.83558846	1.0
8	0.9876258373	6.984919754e-09	6.635672634e-08	15.34956932	84.05664063	22.18941689	1.0
9	0.9876258373	6.984919754e-09	6.635672634e-08	17.77894783	85.00829315	24.44141197	1.0
[EndOfFile]
